<svg width="21" height="22" viewBox="0 0 21 22" fill="none" xmlns="http://www.w3.org/2000/svg">
<path fill-rule="evenodd" clip-rule="evenodd" d="M10.25 7.25C9.25544 7.25 8.30161 7.64509 7.59835 8.34835C6.89509 9.05161 6.5 10.0054 6.5 11C6.5 11.9946 6.89509 12.9484 7.59835 13.6517C8.30161 14.3549 9.25544 14.75 10.25 14.75C11.2446 14.75 12.1984 14.3549 12.9017 13.6517C13.6049 12.9484 14 11.9946 14 11C14 10.0054 13.6049 9.05161 12.9017 8.34835C12.1984 7.64509 11.2446 7.25 10.25 7.25ZM8 11C8 10.4033 8.23705 9.83097 8.65901 9.40901C9.08097 8.98705 9.65326 8.75 10.25 8.75C10.8467 8.75 11.419 8.98705 11.841 9.40901C12.2629 9.83097 12.5 10.4033 12.5 11C12.5 11.5967 12.2629 12.169 11.841 12.591C11.419 13.0129 10.8467 13.25 10.25 13.25C9.65326 13.25 9.08097 13.0129 8.65901 12.591C8.23705 12.169 8 11.5967 8 11Z" fill="#5C738A"/>
<path fill-rule="evenodd" clip-rule="evenodd" d="M10.225 0.25C9.78002 0.25 9.40902 0.25 9.10502 0.27C8.79423 0.282516 8.4877 0.346729 8.19802 0.46C7.86427 0.59809 7.56099 0.800573 7.30551 1.05589C7.05002 1.3112 6.84733 1.61434 6.70902 1.948C6.56402 2.298 6.52502 2.668 6.50902 3.07C6.50723 3.21698 6.46823 3.36112 6.39566 3.48895C6.32309 3.61678 6.21931 3.72414 6.09402 3.801C5.96484 3.87132 5.81995 3.90775 5.67287 3.90687C5.5258 3.906 5.38135 3.86785 5.25302 3.796C4.89702 3.608 4.55702 3.457 4.18102 3.407C3.82296 3.3599 3.45914 3.38379 3.11031 3.4773C2.76149 3.57081 2.4345 3.73212 2.14802 3.952C1.90541 4.14648 1.69689 4.38001 1.53102 4.643C1.36102 4.897 1.17502 5.218 0.953019 5.603L0.928019 5.647C0.705019 6.032 0.520019 6.353 0.386019 6.627C0.246019 6.913 0.136019 7.195 0.0960189 7.507C0.00061921 8.22999 0.196299 8.96127 0.640019 9.54C0.871019 9.841 1.17202 10.06 1.51202 10.274C1.63865 10.3491 1.74416 10.4551 1.81867 10.582C1.89317 10.709 1.93424 10.8528 1.93802 11C1.93424 11.1472 1.89317 11.291 1.81867 11.418C1.74416 11.5449 1.63865 11.6509 1.51202 11.726C1.17202 11.94 0.872019 12.159 0.640019 12.46C0.420136 12.7465 0.258833 13.0735 0.165322 13.4223C0.0718106 13.7711 0.0479217 14.1349 0.095019 14.493C0.136019 14.805 0.245019 15.087 0.385019 15.373C0.520019 15.647 0.705019 15.968 0.928019 16.353L0.953019 16.397C1.17502 16.782 1.36102 17.103 1.53102 17.357C1.70802 17.62 1.89802 17.857 2.14802 18.047C2.43443 18.2671 2.76138 18.4285 3.11021 18.5222C3.45903 18.6159 3.8229 18.64 4.18102 18.593C4.55702 18.543 4.89702 18.393 5.25302 18.204C5.38123 18.1323 5.5255 18.0943 5.67238 18.0934C5.81926 18.0925 5.96397 18.1289 6.09302 18.199C6.21933 18.2749 6.32402 18.382 6.39704 18.51C6.47007 18.638 6.50897 18.7826 6.51002 18.93C6.52502 19.332 6.56402 19.702 6.71002 20.052C6.84811 20.3857 7.05059 20.689 7.30591 20.9445C7.56122 21.2 7.86436 21.4027 8.19802 21.541C8.48802 21.661 8.78802 21.708 9.10502 21.729C9.40902 21.75 9.78002 21.75 10.225 21.75H10.275C10.72 21.75 11.091 21.75 11.395 21.73C11.713 21.708 12.012 21.661 12.302 21.54C12.6358 21.4019 12.939 21.1994 13.1945 20.9441C13.45 20.6888 13.6527 20.3857 13.791 20.052C13.936 19.702 13.975 19.332 13.991 18.93C13.9926 18.7828 14.0316 18.6385 14.1041 18.5105C14.1767 18.3825 14.2806 18.275 14.406 18.198C14.5353 18.1278 14.6802 18.0916 14.8273 18.0926C14.9744 18.0937 15.1188 18.132 15.247 18.204C15.603 18.392 15.943 18.543 16.319 18.592C17.042 18.6874 17.7733 18.4917 18.352 18.048C18.602 17.856 18.792 17.62 18.969 17.357C19.139 17.103 19.325 16.782 19.547 16.397L19.572 16.353C19.795 15.968 19.98 15.647 20.114 15.373C20.254 15.087 20.364 14.804 20.404 14.493C20.4994 13.77 20.3037 13.0387 19.86 12.46C19.629 12.159 19.328 11.94 18.988 11.726C18.8614 11.6509 18.7559 11.5449 18.6814 11.418C18.6069 11.291 18.5658 11.1472 18.562 11C18.562 10.722 18.714 10.446 18.988 10.274C19.328 10.06 19.628 9.841 19.86 9.54C20.0799 9.25352 20.2412 8.92653 20.3347 8.5777C20.4282 8.22888 20.4521 7.86506 20.405 7.507C20.3579 7.1996 20.2599 6.90219 20.115 6.627C19.9442 6.29478 19.7631 5.96795 19.572 5.647L19.547 5.603C19.3644 5.27708 19.1716 4.95692 18.969 4.643C18.8031 4.38036 18.5945 4.14718 18.352 3.953C18.0656 3.73294 17.7387 3.57146 17.3898 3.47778C17.041 3.38409 16.6771 3.36004 16.319 3.407C15.943 3.457 15.603 3.607 15.247 3.796C15.1188 3.86767 14.9745 3.90572 14.8277 3.9066C14.6808 3.90747 14.5361 3.87114 14.407 3.801C14.2814 3.72438 14.1772 3.61712 14.1042 3.48928C14.0313 3.36143 13.992 3.21717 13.99 3.07C13.975 2.668 13.936 2.298 13.79 1.948C13.6519 1.61425 13.4494 1.31097 13.1941 1.05549C12.9388 0.800001 12.6357 0.597314 12.302 0.459C12.012 0.339 11.712 0.292 11.395 0.271C11.091 0.25 10.72 0.25 10.275 0.25H10.225ZM8.77202 1.845C8.84902 1.813 8.96602 1.784 9.20702 1.767C9.45402 1.75 9.77402 1.75 10.25 1.75C10.726 1.75 11.046 1.75 11.293 1.767C11.534 1.784 11.651 1.813 11.728 1.845C12.035 1.972 12.278 2.215 12.405 2.522C12.445 2.618 12.478 2.769 12.491 3.126C12.521 3.918 12.93 4.681 13.656 5.1C14.382 5.519 15.247 5.492 15.948 5.122C16.264 4.955 16.411 4.908 16.515 4.895C16.8436 4.85158 17.1759 4.94043 17.439 5.142C17.505 5.193 17.589 5.28 17.724 5.48C17.863 5.686 18.023 5.963 18.261 6.375C18.499 6.787 18.658 7.065 18.767 7.287C18.874 7.504 18.907 7.62 18.917 7.703C18.9604 8.03157 18.8716 8.36392 18.67 8.627C18.606 8.71 18.492 8.814 18.19 9.004C17.518 9.426 17.062 10.162 17.062 11C17.062 11.838 17.518 12.574 18.19 12.996C18.492 13.186 18.606 13.29 18.67 13.373C18.872 13.636 18.96 13.968 18.917 14.297C18.907 14.38 18.873 14.497 18.767 14.713C18.658 14.936 18.499 15.213 18.261 15.625C18.023 16.037 17.862 16.314 17.724 16.52C17.589 16.72 17.505 16.807 17.439 16.858C17.1759 17.0596 16.8436 17.1484 16.515 17.105C16.411 17.092 16.265 17.045 15.948 16.878C15.248 16.508 14.382 16.48 13.656 16.899C12.93 17.318 12.521 18.082 12.491 18.874C12.478 19.231 12.445 19.382 12.405 19.478C12.3422 19.6298 12.2501 19.7677 12.1339 19.8839C12.0177 20.0001 11.8798 20.0922 11.728 20.155C11.651 20.187 11.534 20.216 11.293 20.233C11.046 20.25 10.726 20.25 10.25 20.25C9.77402 20.25 9.45402 20.25 9.20702 20.233C8.96602 20.216 8.84902 20.187 8.77202 20.155C8.62022 20.0922 8.4823 20.0001 8.36613 19.8839C8.24997 19.7677 8.15784 19.6298 8.09502 19.478C8.05502 19.382 8.02202 19.231 8.00902 18.874C7.97902 18.082 7.57002 17.319 6.84402 16.9C6.11802 16.481 5.25302 16.508 4.55202 16.878C4.23602 17.045 4.08902 17.092 3.98502 17.105C3.65645 17.1484 3.3241 17.0596 3.06102 16.858C2.99502 16.807 2.91102 16.72 2.77602 16.52C2.5879 16.2272 2.40882 15.9288 2.23902 15.625C2.00102 15.213 1.84202 14.935 1.73302 14.713C1.62602 14.496 1.59302 14.38 1.58302 14.297C1.5396 13.9684 1.62845 13.6361 1.83002 13.373C1.89402 13.29 2.00802 13.186 2.31002 12.996C2.98202 12.574 3.43802 11.838 3.43802 11C3.43802 10.162 2.98202 9.426 2.31002 9.004C2.00802 8.814 1.89402 8.71 1.83002 8.627C1.62845 8.36392 1.5396 8.03157 1.58302 7.703C1.59302 7.62 1.62702 7.503 1.73302 7.287C1.84202 7.064 2.00102 6.787 2.23902 6.375C2.47702 5.963 2.63802 5.686 2.77602 5.48C2.91102 5.28 2.99502 5.193 3.06102 5.142C3.3241 4.94043 3.65645 4.85158 3.98502 4.895C4.08902 4.908 4.23502 4.955 4.55202 5.122C5.25202 5.492 6.11802 5.52 6.84402 5.1C7.57002 4.681 7.97902 3.918 8.00902 3.126C8.02202 2.769 8.05502 2.618 8.09502 2.522C8.22202 2.215 8.46502 1.972 8.77202 1.845Z" fill="#5C738A"/>
</svg>
