<svg width="101" height="101" viewBox="0 0 101 101" fill="none" xmlns="http://www.w3.org/2000/svg">
<path d="M50.2895 75.7498C51.7625 75.7498 53.0081 75.2406 54.0266 74.2222C55.045 73.2038 55.5528 71.9595 55.55 70.4894C55.5472 69.0193 55.0394 67.7736 54.0266 66.7524C53.0137 65.7312 51.7681 65.2234 50.2895 65.229C48.811 65.2346 47.5668 65.7438 46.5568 66.7566C45.5468 67.7694 45.0375 69.0137 45.0291 70.4894C45.0207 71.9651 45.5299 73.2108 46.5568 74.2264C47.5836 75.242 48.8279 75.7498 50.2895 75.7498ZM50.5 92.5832C44.6784 92.5832 39.2076 91.4778 34.0875 89.267C28.9673 87.0562 24.5135 84.0585 20.726 80.2738C16.9385 76.4891 13.9408 72.0353 11.7328 66.9123C9.52483 61.7894 8.41944 56.3186 8.41663 50.4998C8.41383 44.6811 9.51921 39.2103 11.7328 34.0873C13.9464 28.9644 16.9441 24.5106 20.726 20.7259C24.5079 16.9412 28.9617 13.9434 34.0875 11.7327C39.2132 9.52189 44.684 8.4165 50.5 8.4165C56.3159 8.4165 61.7867 9.52189 66.9125 11.7327C72.0382 13.9434 76.492 16.9412 80.2739 20.7259C84.0558 24.5106 87.055 28.9644 89.2713 34.0873C91.4877 39.2103 92.5917 44.6811 92.5833 50.4998C92.5749 56.3186 91.4695 61.7894 89.2671 66.9123C87.0648 72.0353 84.067 76.4891 80.2739 80.2738C76.4808 84.0585 72.027 87.0576 66.9125 89.2712C61.7979 91.4848 56.3271 92.5888 50.5 92.5832ZM50.9208 32.404C52.6743 32.404 54.2005 32.9651 55.4995 34.0873C56.7984 35.2096 57.4465 36.6123 57.4437 38.2957C57.4437 39.8387 56.971 41.2064 56.0255 42.3988C55.08 43.5912 54.0097 44.7134 52.8145 45.7655C51.2014 47.1682 49.7817 48.7113 48.5557 50.3946C47.3297 52.078 46.7153 53.9717 46.7125 56.0759C46.7125 57.0578 47.0814 57.8827 47.8193 58.5504C48.5571 59.2181 49.4156 59.5506 50.3948 59.5478C51.4468 59.5478 52.3418 59.1971 53.0797 58.4957C53.8175 57.7943 54.2903 56.9175 54.4979 55.8655C54.7784 54.3925 55.4097 53.0781 56.3916 51.9223C57.3736 50.7664 58.4257 49.661 59.5479 48.6061C61.1611 47.063 62.547 45.3797 63.7057 43.5561C64.8644 41.7325 65.4424 39.6984 65.4395 37.454C65.4395 33.8769 63.9849 30.9493 61.0755 28.6712C58.1661 26.3931 54.7812 25.2526 50.9208 25.2498C48.2555 25.2498 45.7137 25.8109 43.2953 26.9332C40.8769 28.0554 39.0351 29.7738 37.7698 32.0884C37.2788 32.93 37.1217 33.825 37.2984 34.7733C37.4752 35.7216 37.9479 36.4398 38.7166 36.928C39.6986 37.4891 40.7156 37.6644 41.7677 37.454C42.8198 37.2436 43.6965 36.6474 44.3979 35.6655C45.1694 34.6134 46.1345 33.8068 47.2932 33.2457C48.4519 32.6846 49.6611 32.404 50.9208 32.404Z" fill="#1F41BB"/>
</svg>
