<svg width="19" height="19" viewBox="0 0 19 19" fill="none" xmlns="http://www.w3.org/2000/svg">
<path fill-rule="evenodd" clip-rule="evenodd" d="M17.5987 7.72844L10.0987 0.652188C10.095 0.648989 10.0916 0.645543 10.0884 0.641875C9.51618 0.121501 8.64213 0.121501 8.06994 0.641875L8.05962 0.652188L0.568062 7.72844C0.259104 8.01254 0.0833101 8.41309 0.083374 8.83281V17.5C0.083374 18.3284 0.754947 19 1.58337 19H6.08337C6.9118 19 7.58337 18.3284 7.58337 17.5V13H10.5834V17.5C10.5834 18.3284 11.2549 19 12.0834 19H16.5834C17.4118 19 18.0834 18.3284 18.0834 17.5V8.83281C18.0834 8.41309 17.9076 8.01254 17.5987 7.72844ZM16.5834 17.5H12.0834V13C12.0834 12.1716 11.4118 11.5 10.5834 11.5H7.58337C6.75495 11.5 6.08337 12.1716 6.08337 13V17.5H1.58337V8.83281L1.59369 8.82344L9.08337 1.75L16.574 8.82156L16.5843 8.83094L16.5834 17.5Z" fill="#5C738A"/>
</svg>
